<svg width="20" height="20" viewBox="0 0 20 20" fill="none" xmlns="http://www.w3.org/2000/svg">
<path d="M3.32481 2.49186C3.15903 2.4919 2.99703 2.54139 2.85952 2.63398C2.72201 2.72658 2.61524 2.85808 2.55286 3.01167C2.49048 3.16526 2.47532 3.33397 2.50933 3.49622C2.54333 3.65848 2.62495 3.8069 2.74375 3.92253L4.22975 5.40853C2.61986 6.70144 1.57588 8.28667 1.05918 9.21712C0.782513 9.71545 0.791602 10.3154 1.06243 10.8171C2.02494 12.5987 4.79211 16.6667 9.99961 16.6667C11.7293 16.6667 13.1713 16.2123 14.3681 15.5469L16.0771 17.2559C16.1539 17.3358 16.2458 17.3997 16.3476 17.4437C16.4494 17.4877 16.5589 17.5109 16.6698 17.512C16.7807 17.5132 16.8906 17.4922 16.9933 17.4502C17.0959 17.4083 17.1892 17.3464 17.2676 17.268C17.346 17.1896 17.408 17.0963 17.4499 16.9937C17.4918 16.891 17.5128 16.781 17.5116 16.6702C17.5105 16.5593 17.4873 16.4498 17.4433 16.348C17.3993 16.2462 17.3354 16.1543 17.2555 16.0775L3.92214 2.74414C3.84448 2.66431 3.75161 2.60086 3.64901 2.55753C3.54642 2.5142 3.43618 2.49187 3.32481 2.49186ZM9.99961 3.33333C8.98961 3.33333 8.08777 3.49976 7.26361 3.75976L9.3974 5.89355C9.5949 5.86439 9.79378 5.83333 9.99961 5.83333C12.3004 5.83333 14.1663 7.69917 14.1663 10C14.1663 10.2058 14.1352 10.4047 14.1061 10.6022L16.9641 13.4603C17.8591 12.467 18.5142 11.4594 18.9059 10.7894C19.2009 10.2861 19.1997 9.66777 18.9205 9.15527C17.9463 7.36111 15.1821 3.33333 9.99961 3.33333ZM6.52793 7.7067L7.74701 8.92578C7.58974 9.25069 7.49961 9.6138 7.49961 10C7.49961 11.3808 8.61878 12.5 9.99961 12.5C10.3858 12.5 10.7489 12.4099 11.0738 12.2526L12.2945 13.4733C11.4666 14.0223 10.4334 14.2853 9.33229 14.1146C7.58396 13.8429 6.15669 12.4156 5.88503 10.6673C5.71434 9.56666 5.97941 8.53449 6.52793 7.7067Z" fill="#8F9199"/>
</svg>
