<svg width="68" height="48" viewBox="0 0 68 48" fill="none" xmlns="http://www.w3.org/2000/svg">
<path d="M10.1677 35.6473C10.6839 36.086 11.0022 36.6709 11.1226 37.4107H9.68603C9.62581 37.015 9.45377 36.6881 9.1699 36.4473C8.88603 36.2064 8.51614 36.0774 8.06022 36.0774C7.68173 36.0774 7.38065 36.172 7.1742 36.3527C6.96775 36.5333 6.86452 36.7828 6.86452 37.0924C6.86452 37.3247 6.94194 37.5053 7.08818 37.6516C7.24302 37.7978 7.42366 37.901 7.65592 37.9871C7.87958 38.0645 8.20646 38.1591 8.61936 38.2537C9.1699 38.3742 9.61721 38.5032 9.9613 38.6408C10.3054 38.7699 10.5979 38.9849 10.8387 39.2774C11.0796 39.5699 11.2086 39.957 11.2086 40.4559C11.2086 41.0666 10.9764 41.5656 10.5118 41.9441C10.0473 42.3225 9.41936 42.5204 8.62796 42.5204C7.71614 42.5204 6.97635 42.3053 6.40861 41.8838C5.84087 41.4537 5.50538 40.8602 5.39355 40.1032H6.87312C6.91614 40.4989 7.09678 40.8258 7.40646 41.0752C7.71614 41.3247 8.12904 41.4451 8.62796 41.4451C8.98925 41.4451 9.28173 41.3505 9.48818 41.1613C9.69463 40.972 9.79786 40.7311 9.79786 40.4387C9.79786 40.1806 9.72044 39.9742 9.557 39.8279C9.39356 39.6731 9.19571 39.5613 8.95485 39.4752C8.71399 39.3892 8.3871 39.3032 7.9656 39.2172C7.43227 39.0967 7.00216 38.9677 6.66667 38.8473C6.33119 38.7268 6.04732 38.5204 5.81506 38.2451C5.5828 37.9699 5.46237 37.5828 5.46237 37.1096C5.46237 36.4903 5.69463 35.9828 6.15915 35.5957C6.62366 35.2086 7.26882 35.0193 8.09463 35.0193C8.96345 34.9849 9.65162 35.2086 10.1677 35.6473Z" fill="white"/>
<path d="M19.4841 35.0795V42.4172H17.9529V40.8172C17.7637 41.3591 17.4454 41.7806 16.9809 42.0731C16.5164 42.3742 15.983 42.5204 15.3723 42.5204C14.5207 42.5204 13.8325 42.2451 13.325 41.6946C12.8088 41.144 12.5508 40.3612 12.5508 39.3376V35.0795H14.0648V39.1828C14.0648 39.8451 14.2368 40.3613 14.5723 40.7225C14.9078 41.0838 15.3723 41.2645 15.9572 41.2645C16.5594 41.2645 17.0411 41.0666 17.411 40.6795C17.7723 40.2924 17.9529 39.7247 17.9529 38.9763V35.0881H19.4841V35.0795Z" fill="white"/>
<path d="M27.2259 35.4408C27.7248 35.7419 28.1205 36.1806 28.4044 36.7484C28.6883 37.3161 28.8345 37.9785 28.8345 38.7441C28.8345 39.5183 28.6969 40.1892 28.4044 40.757C28.1205 41.3247 27.7248 41.7634 27.2259 42.0645C26.727 42.3656 26.1506 42.5204 25.5141 42.5204C24.8517 42.5204 24.284 42.357 23.8108 42.0301C23.3377 41.7032 23.0108 41.2645 22.8216 40.7226V42.4258H21.3076V32.5591H22.8216V36.7828C23.0108 36.2408 23.3377 35.8107 23.8108 35.4752C24.284 35.1398 24.8517 34.9849 25.5141 34.9849C26.1506 34.9849 26.727 35.1398 27.2259 35.4408ZM23.9055 36.6193C23.57 36.8172 23.3033 37.101 23.1055 37.4709C22.9076 37.8408 22.813 38.2623 22.813 38.7441C22.813 39.2344 22.9076 39.6559 23.1055 40.0258C23.3033 40.3871 23.57 40.6709 23.9055 40.8688C24.2409 41.0666 24.628 41.1699 25.0496 41.1699C25.7205 41.1699 26.2625 40.9548 26.6754 40.5247C27.0797 40.0946 27.2861 39.501 27.2861 38.7441C27.2861 37.9957 27.0797 37.4107 26.6754 36.972C26.2711 36.5333 25.7291 36.3183 25.0496 36.3183C24.6194 36.3183 24.2409 36.4129 23.9055 36.6193Z" fill="white"/>
<path d="M33.9785 41.0924V42.4086H33.0494C32.2667 42.4086 31.6731 42.2193 31.2688 41.8408C30.8645 41.4623 30.6667 40.8344 30.6667 39.957V36.3613H29.6172V35.0709H30.6667V33.2473H32.1978V35.0709H33.9699V36.3613H32.1978V39.9828C32.1978 40.4043 32.2753 40.6881 32.4301 40.8516C32.5849 41.015 32.8602 41.0924 33.2473 41.0924H33.9785Z" fill="white"/>
<path d="M35.4581 32.3096C35.6387 32.1376 35.871 32.0602 36.1635 32.0602C36.4559 32.0602 36.6968 32.1462 36.8774 32.3096C37.0581 32.4817 37.1527 32.6881 37.1527 32.9462C37.1527 33.2043 37.0581 33.4107 36.8774 33.5742C36.6968 33.7376 36.4559 33.815 36.1635 33.815C35.871 33.815 35.6387 33.7376 35.4581 33.5742C35.2774 33.4107 35.1914 33.2043 35.1914 32.9462C35.1914 32.6881 35.2774 32.4817 35.4581 32.3096ZM36.9204 35.0795V42.4172H35.4065V35.0795H36.9204Z" fill="white"/>
<path d="M42.4511 41.0924V42.4086H41.5221C40.7393 42.4086 40.1458 42.2193 39.7415 41.8408C39.3372 41.4623 39.1393 40.8344 39.1393 39.957V36.3613H38.0898V35.0709H39.1393V33.2473H40.6705V35.0709H42.4425V36.3613H40.6705V39.9828C40.6705 40.4043 40.7479 40.6881 40.9027 40.8516C41.0576 41.015 41.3329 41.0924 41.72 41.0924H42.4511Z" fill="white"/>
<path d="M45.3939 32.5591V42.4086H43.8799V32.5591H45.3939Z" fill="white"/>
<path d="M53.9953 39.0451H48.3522C48.378 39.8021 48.5845 40.3613 48.9802 40.7225C49.3673 41.0838 49.8576 41.2645 50.434 41.2645C50.9415 41.2645 51.3716 41.1355 51.7157 40.8774C52.0684 40.6193 52.2834 40.2752 52.3608 39.8537H53.978C53.8834 40.3699 53.677 40.8258 53.3673 41.2215C53.0576 41.6172 52.6533 41.9354 52.1544 42.1591C51.6555 42.3828 51.1049 42.4946 50.4856 42.4946C49.7716 42.4946 49.1436 42.3398 48.6017 42.0387C48.0598 41.7376 47.6297 41.2989 47.32 40.7312C47.0103 40.1634 46.8555 39.4924 46.8555 38.7182C46.8555 37.9527 47.0103 37.2903 47.32 36.7225C47.6297 36.1548 48.0598 35.7161 48.6017 35.415C49.1436 35.1139 49.7716 34.9591 50.4856 34.9591C51.2082 34.9591 51.8361 35.1053 52.3694 35.4064C52.9028 35.7075 53.3157 36.1118 53.6082 36.6279C53.9006 37.1441 54.0383 37.729 54.0383 38.3656C54.0469 38.6408 54.0297 38.8559 53.9953 39.0451ZM52.2662 37.1441C52.0856 36.8172 51.8361 36.5849 51.5178 36.4215C51.1996 36.2666 50.8555 36.1892 50.4856 36.1892C49.892 36.1892 49.3931 36.3699 48.9974 36.7312C48.6017 37.0924 48.378 37.6344 48.3436 38.3398H52.5157C52.5329 37.8752 52.4469 37.4709 52.2662 37.1441Z" fill="white"/>
<path d="M59.991 35.6473C60.5071 36.086 60.8254 36.6709 60.9458 37.4107H59.5093C59.4491 37.015 59.277 36.6881 58.9931 36.4473C58.7093 36.2064 58.3394 36.0774 57.8835 36.0774C57.505 36.0774 57.2039 36.172 56.9974 36.3527C56.791 36.5333 56.6878 36.7828 56.6878 37.0924C56.6878 37.3247 56.7652 37.5053 56.9114 37.6516C57.0663 37.7978 57.2469 37.901 57.4792 37.9871C57.7028 38.0645 58.0297 38.1591 58.4426 38.2537C58.9931 38.3742 59.4405 38.5032 59.7845 38.6408C60.1286 38.7699 60.4211 38.9849 60.662 39.2774C60.9028 39.5699 61.0318 39.957 61.0318 40.4559C61.0318 41.0666 60.7996 41.5656 60.3351 41.9441C59.8706 42.3225 59.2426 42.5204 58.4512 42.5204C57.5394 42.5204 56.7996 42.3053 56.2318 41.8838C55.6641 41.4537 55.3286 40.8602 55.2168 40.1032H56.6964C56.7394 40.4989 56.92 40.8258 57.2297 41.0752C57.5394 41.3247 57.9523 41.4451 58.4512 41.4451C58.8125 41.4451 59.105 41.3505 59.3114 41.1613C59.5179 40.972 59.6211 40.7311 59.6211 40.4387C59.6211 40.1806 59.5437 39.9742 59.3802 39.8279C59.2168 39.6731 59.0189 39.5613 58.7781 39.4752C58.5372 39.3892 58.2103 39.3032 57.7888 39.2172C57.2555 39.0967 56.8254 38.9677 56.4899 38.8473C56.1544 38.7268 55.8706 38.5204 55.6383 38.2451C55.406 37.9699 55.2856 37.5828 55.2856 37.1096C55.2856 36.4903 55.5179 35.9828 55.9824 35.5957C56.4469 35.2086 57.0921 35.0193 57.9179 35.0193C58.7781 34.9849 59.4663 35.2086 59.991 35.6473Z" fill="white"/>
<path d="M8.27509 20.628C8.03423 20.843 7.9138 21.2129 7.9138 21.7376V21.8581H9.5224V23.1656H7.9138V29.1957H6.38261V23.1656H5.38477V21.8581H6.38261V21.6172C6.38261 20.7226 6.64068 20.0516 7.16541 19.6043C7.69014 19.157 8.47294 18.9591 9.5224 19.0108V20.3441C8.92885 20.3097 8.51595 20.4129 8.27509 20.628Z" fill="white"/>
<path d="M10.8048 19.0882C10.9854 18.9161 11.2177 18.8387 11.5101 18.8387C11.8026 18.8387 12.0435 18.9247 12.2241 19.0882C12.4048 19.2602 12.4994 19.4667 12.4994 19.7247C12.4994 19.9828 12.4048 20.1893 12.2241 20.3527C12.0435 20.5161 11.8026 20.5936 11.5101 20.5936C11.2177 20.5936 10.9854 20.5161 10.8048 20.3527C10.6241 20.1893 10.5381 19.9828 10.5381 19.7247C10.5381 19.4667 10.6241 19.2602 10.8048 19.0882ZM12.2671 21.8581V29.1957H10.7531V21.8581H12.2671Z" fill="white"/>
<path d="M15.6214 19.3376V29.1871H14.1074V19.3376H15.6214Z" fill="white"/>
<path d="M28.7137 22.5635C29.2298 23.114 29.4965 23.8968 29.4965 24.9204V29.1957H27.9825V25.0839C27.9825 24.4473 27.8191 23.9484 27.5008 23.5957C27.1825 23.243 26.7438 23.071 26.1847 23.071C25.5911 23.071 25.118 23.2602 24.7653 23.6387C24.4126 24.0172 24.2406 24.5678 24.2406 25.2989V29.2043H22.7266V25.0925C22.7266 24.4559 22.5632 23.957 22.2449 23.6043C21.9266 23.2516 21.4879 23.0796 20.9288 23.0796C20.3352 23.0796 19.8621 23.2688 19.5094 23.6473C19.1567 24.0258 18.9847 24.5764 18.9847 25.3075V29.2129H17.4707V21.8753H18.9847V23.4065C19.1739 22.8731 19.4836 22.4688 19.9137 22.185C20.3524 21.9011 20.8599 21.7549 21.4449 21.7549C22.0556 21.7549 22.589 21.9097 23.0363 22.2108C23.4836 22.5118 23.8105 22.9506 24.0169 23.5183C24.232 22.9678 24.5675 22.5376 25.0406 22.228C25.5137 21.9183 26.047 21.7635 26.6406 21.7635C27.5008 21.7376 28.1976 22.0129 28.7137 22.5635Z" fill="white"/>
<path d="M35.9143 22.2538C36.3874 22.5807 36.7143 23.0194 36.9121 23.5613V21.8581H38.4261V29.1957H36.9121V27.4925C36.7143 28.0344 36.3874 28.4731 35.9143 28.8C35.4412 29.1269 34.8734 29.2903 34.2111 29.2903C33.5745 29.2903 32.9982 29.1355 32.4992 28.8344C32.0003 28.5333 31.6046 28.0946 31.3207 27.5269C31.0369 26.9592 30.8906 26.2882 30.8906 25.514C30.8906 24.7484 31.0283 24.086 31.3207 23.5183C31.6046 22.9506 32.0003 22.5118 32.4992 22.2108C32.9982 21.9097 33.5745 21.7549 34.2111 21.7549C34.8734 21.7635 35.4412 21.9269 35.9143 22.2538ZM33.0584 23.7419C32.6541 24.1721 32.4562 24.7656 32.4562 25.5226C32.4562 26.2796 32.6541 26.8731 33.0584 27.3032C33.4627 27.7333 34.0046 27.9484 34.6756 27.9484C35.1057 27.9484 35.4842 27.8452 35.8197 27.6473C36.1551 27.4495 36.4218 27.1656 36.6197 26.8043C36.8175 26.443 36.9121 26.0129 36.9121 25.5226C36.9121 25.0409 36.8175 24.6194 36.6197 24.2495C36.4218 23.8796 36.1551 23.5957 35.8197 23.3979C35.4842 23.2 35.0971 23.0968 34.6756 23.0968C33.996 23.0968 33.4627 23.3118 33.0584 23.7419Z" fill="white"/>
<path d="M67.3118 48H0V0H67.3118V48ZM1.43656 46.5548H65.8667V1.44516H1.43656V46.5548Z" fill="white"/>
</svg>
