<svg width="33" height="16" viewBox="0 0 33 16" fill="none" xmlns="http://www.w3.org/2000/svg">
<g clip-path="url(#clip0)">
<path d="M30.8349 3.65575e-05H1.86834C0.837891 3.65575e-05 0 0.838599 0 1.86904V14.1313C0 15.1617 0.837891 16 1.86834 16H30.8349C31.8653 16 32.7039 15.1617 32.7039 14.1313V1.86904C32.7039 0.838599 31.8653 3.65575e-05 30.8349 3.65575e-05Z" fill="#E6B91E"/>
<path fill-rule="evenodd" clip-rule="evenodd" d="M4.70874 3.38851V12.7202H7.12888V3.38851H4.70874Z" fill="#010101"/>
<path fill-rule="evenodd" clip-rule="evenodd" d="M12.2941 3.38851L11.7334 7.74914L11.3893 5.379C11.2854 4.6191 11.1905 3.95409 11.0956 3.38851H7.9563V12.7202H10.0776L10.0869 6.55958L10.9779 12.7202H12.4888L13.3391 6.42397L13.3436 12.7202H15.46V3.38851H12.2941Z" fill="#010101"/>
<path fill-rule="evenodd" clip-rule="evenodd" d="M19.2466 5.07156C19.3411 5.12571 19.405 5.21198 19.4322 5.33381C19.4591 5.45148 19.473 5.72274 19.473 6.14339V9.75724C19.473 10.3818 19.4322 10.7618 19.3504 10.9023C19.2693 11.0423 19.0568 11.11 18.7082 11.11V4.98595C18.9705 4.98595 19.1514 5.01285 19.2466 5.07156ZM19.2238 12.7202C19.8029 12.7202 20.237 12.6885 20.5269 12.6253C20.8112 12.5622 21.0559 12.4535 21.2502 12.2906C21.4448 12.1318 21.5853 11.9106 21.6619 11.63C21.7433 11.3498 21.7885 10.7891 21.7885 9.95222V6.67726C21.7885 5.79518 21.7523 5.20266 21.7026 4.89969C21.6484 4.60117 21.5128 4.32509 21.2954 4.08109C21.0828 3.83642 20.7664 3.66008 20.3547 3.55208C19.943 3.44338 19.2645 3.38851 18.0929 3.38851H16.2881V12.7202H19.2238Z" fill="#010101"/>
<path fill-rule="evenodd" clip-rule="evenodd" d="M25.7647 10.4588C25.7647 10.9067 25.742 11.1959 25.6967 11.3136C25.6515 11.4313 25.4569 11.4896 25.3075 11.4896C25.1632 11.4896 25.0676 11.4358 25.0183 11.3184C24.9731 11.2053 24.9458 10.943 24.9458 10.5313V8.06594C24.9458 7.64043 24.9682 7.37814 25.0093 7.26943C25.0545 7.16558 25.1494 7.11139 25.2895 7.11139C25.4386 7.11139 25.6374 7.17491 25.6878 7.29258C25.7375 7.41441 25.7647 7.6725 25.7647 8.06594V10.4588ZM22.6116 3.38852V12.7202H24.7923L24.9458 12.1277C25.1401 12.3675 25.3575 12.5435 25.597 12.666C25.8372 12.7833 26.1895 12.8423 26.4653 12.8423C26.8456 12.8423 27.1799 12.743 27.456 12.5394C27.7366 12.3406 27.9133 12.1008 27.9858 11.8288C28.0627 11.5535 28.0989 11.1373 28.0989 10.5806V7.96205C28.0989 7.39678 28.0896 7.02993 28.0627 6.85846C28.0396 6.68658 27.9626 6.5099 27.8408 6.3287C27.7142 6.14791 27.5378 6.00815 27.3025 5.90805C27.0626 5.80866 26.7869 5.75897 26.4653 5.75897C26.1895 5.75897 25.8324 5.81348 25.5925 5.92669C25.3575 6.03505 25.1401 6.20241 24.9458 6.42398V3.38852H22.6116Z" fill="#010101"/>
</g>
<defs>
<clipPath id="clip0">
<rect width="32.7041" height="16" fill="white"/>
</clipPath>
</defs>
</svg>
